<svg xmlns="http://www.w3.org/2000/svg" height="20px" viewBox="100 -700 600 600" width="20px"
    fill="#2e3436">
    <path
        d="M700 -566.667v400q0 27.5 -19.583 47.083T633.333 -100H166.667q-27.5 0 -47.083 -19.583T100 -166.667v-466.667q0 -27.5 19.583 -47.083T166.667 -700h400zm-66.667 28.333L538.333 -633.333H166.667v466.667h466.667zM470.833 -229.167q29.167 -29.167 29.167 -70.833t-29.167 -70.833 -70.833 -29.167 -70.833 29.167 -29.167 70.833 29.167 70.833 70.833 29.167 70.833 -29.167M200 -466.667h300v-133.333H200zm-33.333 -71.667v371.667z" />
</svg>