<svg xmlns="http://www.w3.org/2000/svg" height="20px"
    viewBox="65 -733.3330078125 670.0009765625 666.6660766601562" width="20px" fill="#2e3436">
    <path
        d="m308.333 -66.667 -13.333 -106.667q-10.833 -4.167 -20.417 -10T255.833 -195.833l-99.167 41.667L65 -312.5l85.833 -65q-0.833 -5.833 -0.833 -11.25v-22.5q0 -5.417 0.833 -11.25L65 -487.5l91.667 -158.333 99.167 41.667q9.167 -6.667 19.167 -12.5t20 -10l13.333 -106.667h183.333l13.333 106.667q10.833 4.167 20.417 10t18.75 12.5l99.167 -41.667 91.667 158.333 -85.833 65q0.833 5.833 0.833 11.25v22.5q0 5.417 -1.667 11.25l85.833 65 -91.667 158.333 -98.333 -41.667q-9.167 6.667 -19.167 12.5t-20 10L491.667 -66.667zm58.333 -66.667h65.833l11.667 -88.333q25.833 -6.667 47.917 -19.583T532.5 -272.5l82.5 34.167 32.5 -56.667 -71.667 -54.167q4.167 -11.667 5.833 -24.583t1.667 -26.25 -1.667 -26.25 -5.833 -24.583l71.667 -54.167 -32.5 -56.667 -82.5 35q-18.333 -19.167 -40.417 -32.083T444.167 -578.333l-10.833 -88.333h-65.833l-11.667 88.333q-25.833 6.667 -47.917 19.583T267.5 -527.5l-82.5 -34.167 -32.5 56.667 71.667 53.333q-4.167 12.5 -5.833 25t-1.667 26.667q0 13.333 1.667 25.833t5.833 25l-71.667 54.167 32.5 56.667 82.5 -35q18.333 19.167 40.417 32.083T355.833 -221.667zm35 -150q48.333 0 82.5 -34.167t34.167 -82.5 -34.167 -82.5 -82.5 -34.167q-49.167 0 -82.917 34.167T285 -400t33.75 82.5 82.917 34.167m-1.667 -116.667" />
</svg>