<svg xmlns="http://www.w3.org/2000/svg" height="20px" viewBox="100 -700 599.9990234375 600"
    width="20px" fill="#2e3436">
    <path
        d="M653.333 -100 443.333 -310q-25 20 -57.5 31.667t-69.167 11.667q-90.833 0 -153.75 -62.917T100 -483.333t62.917 -153.75T316.667 -700t153.75 62.917T533.333 -483.333q0 36.667 -11.667 69.167t-31.667 57.5l210 210zM316.667 -333.333q62.5 0 106.25 -43.75T466.667 -483.333t-43.75 -106.25T316.667 -633.333t-106.25 43.75T166.667 -483.333t43.75 106.25T316.667 -333.333m-33.333 -50v-66.667h-66.667v-66.667h66.667v-66.667h66.667v66.667h66.667v66.667h-66.667v66.667z" />
</svg>